<svg width="26" height="28" viewBox="0 0 26 28" fill="none" xmlns="http://www.w3.org/2000/svg">
<path d="M23.1562 3.9375H20.7188V5.25C20.7188 5.5981 20.5903 5.93194 20.3618 6.17808C20.1332 6.42422 19.8232 6.5625 19.5 6.5625C19.1768 6.5625 18.8668 6.42422 18.6382 6.17808C18.4097 5.93194 18.2812 5.5981 18.2812 5.25V3.9375H14.2188V5.25C14.2188 5.5981 14.0903 5.93194 13.8618 6.17808C13.6332 6.42422 13.3232 6.5625 13 6.5625C12.6768 6.5625 12.3668 6.42422 12.1382 6.17808C11.9097 5.93194 11.7812 5.5981 11.7812 5.25V3.9375H7.71875V5.25C7.71875 5.5981 7.59035 5.93194 7.36179 6.17808C7.13323 6.42422 6.82323 6.5625 6.5 6.5625C6.17677 6.5625 5.86677 6.42422 5.63821 6.17808C5.40965 5.93194 5.28125 5.5981 5.28125 5.25V3.9375H2.84375C2.41277 3.9375 1.99945 4.12187 1.6947 4.45006C1.38995 4.77825 1.21875 5.22337 1.21875 5.6875V9.1875H24.7812V5.6875C24.7812 5.22337 24.61 4.77825 24.3053 4.45006C24.0006 4.12187 23.5872 3.9375 23.1562 3.9375Z" fill="#9BC9FF"/>
<path d="M11.375 12.25H9.75C9.52563 12.25 9.34375 12.4459 9.34375 12.6875V14C9.34375 14.2416 9.52563 14.4375 9.75 14.4375H11.375C11.5994 14.4375 11.7812 14.2416 11.7812 14V12.6875C11.7812 12.4459 11.5994 12.25 11.375 12.25Z" fill="#9BC9FF"/>
<path d="M6.5 12.25H4.875C4.65063 12.25 4.46875 12.4459 4.46875 12.6875V14C4.46875 14.2416 4.65063 14.4375 4.875 14.4375H6.5C6.72437 14.4375 6.90625 14.2416 6.90625 14V12.6875C6.90625 12.4459 6.72437 12.25 6.5 12.25Z" fill="#9BC9FF"/>
<path d="M21.125 12.25H19.5C19.2756 12.25 19.0938 12.4459 19.0938 12.6875V14C19.0938 14.2416 19.2756 14.4375 19.5 14.4375H21.125C21.3494 14.4375 21.5312 14.2416 21.5312 14V12.6875C21.5312 12.4459 21.3494 12.25 21.125 12.25Z" fill="#9BC9FF"/>
<path d="M11.375 16.1875H9.75C9.52563 16.1875 9.34375 16.3834 9.34375 16.625V17.9375C9.34375 18.1791 9.52563 18.375 9.75 18.375H11.375C11.5994 18.375 11.7812 18.1791 11.7812 17.9375V16.625C11.7812 16.3834 11.5994 16.1875 11.375 16.1875Z" fill="#9BC9FF"/>
<path d="M6.5 16.1875H4.875C4.65063 16.1875 4.46875 16.3834 4.46875 16.625V17.9375C4.46875 18.1791 4.65063 18.375 4.875 18.375H6.5C6.72437 18.375 6.90625 18.1791 6.90625 17.9375V16.625C6.90625 16.3834 6.72437 16.1875 6.5 16.1875Z" fill="#9BC9FF"/>
<path d="M11.375 20.125H9.75C9.52563 20.125 9.34375 20.3209 9.34375 20.5625V21.875C9.34375 22.1166 9.52563 22.3125 9.75 22.3125H11.375C11.5994 22.3125 11.7812 22.1166 11.7812 21.875V20.5625C11.7812 20.3209 11.5994 20.125 11.375 20.125Z" fill="#9BC9FF"/>
<path d="M16.25 12.25H14.625C14.4006 12.25 14.2188 12.4459 14.2188 12.6875V14C14.2188 14.2416 14.4006 14.4375 14.625 14.4375H16.25C16.4744 14.4375 16.6562 14.2416 16.6562 14V12.6875C16.6562 12.4459 16.4744 12.25 16.25 12.25Z" fill="#9BC9FF"/>
<path d="M16.25 16.1875H14.625C14.4006 16.1875 14.2188 16.3834 14.2188 16.625V17.9375C14.2188 18.1791 14.4006 18.375 14.625 18.375H16.25C16.4744 18.375 16.6562 18.1791 16.6562 17.9375V16.625C16.6562 16.3834 16.4744 16.1875 16.25 16.1875Z" fill="#9BC9FF"/>
<path d="M6.5 20.125H4.875C4.65063 20.125 4.46875 20.3209 4.46875 20.5625V21.875C4.46875 22.1166 4.65063 22.3125 4.875 22.3125H6.5C6.72437 22.3125 6.90625 22.1166 6.90625 21.875V20.5625C6.90625 20.3209 6.72437 20.125 6.5 20.125Z" fill="#9BC9FF"/>
<path d="M19.9062 26.6875C22.5986 26.6875 24.7812 24.337 24.7812 21.4375C24.7812 18.538 22.5986 16.1875 19.9062 16.1875C17.2139 16.1875 15.0312 18.538 15.0312 21.4375C15.0312 24.337 17.2139 26.6875 19.9062 26.6875Z" fill="#9BC9FF"/>
<path d="M23.1562 3.5H21.125V2.625C21.125 2.16087 20.9538 1.71575 20.649 1.38756C20.3443 1.05937 19.931 0.875 19.5 0.875C19.069 0.875 18.6557 1.05937 18.351 1.38756C18.0462 1.71575 17.875 2.16087 17.875 2.625V3.5H14.625V2.625C14.625 2.16087 14.4538 1.71575 14.149 1.38756C13.8443 1.05937 13.431 0.875 13 0.875C12.569 0.875 12.1557 1.05937 11.851 1.38756C11.5462 1.71575 11.375 2.16087 11.375 2.625V3.5H8.125V2.625C8.125 2.16087 7.95379 1.71575 7.64905 1.38756C7.3443 1.05937 6.93098 0.875 6.5 0.875C6.06902 0.875 5.6557 1.05937 5.35095 1.38756C5.0462 1.71575 4.875 2.16087 4.875 2.625V3.5H2.84375C2.30503 3.5 1.78837 3.73047 1.40744 4.1407C1.02651 4.55094 0.8125 5.10734 0.8125 5.6875V23.1875C0.8125 23.7677 1.02651 24.3241 1.40744 24.7343C1.78837 25.1445 2.30503 25.375 2.84375 25.375H14.2188C14.3265 25.375 14.4298 25.3289 14.506 25.2469C14.5822 25.1648 14.625 25.0535 14.625 24.9375C14.625 24.8215 14.5822 24.7102 14.506 24.6281C14.4298 24.5461 14.3265 24.5 14.2188 24.5H2.84375C2.52081 24.499 2.21138 24.3603 1.98303 24.1144C1.75468 23.8685 1.62596 23.5353 1.625 23.1875V9.625H24.375V17.0625C24.375 17.1785 24.4178 17.2898 24.494 17.3719C24.5702 17.4539 24.6735 17.5 24.7812 17.5C24.889 17.5 24.9923 17.4539 25.0685 17.3719C25.1447 17.2898 25.1875 17.1785 25.1875 17.0625V5.6875C25.1875 5.10734 24.9735 4.55094 24.5926 4.1407C24.2116 3.73047 23.695 3.5 23.1562 3.5ZM18.6875 2.625C18.6875 2.39294 18.7731 2.17038 18.9255 2.00628C19.0778 1.84219 19.2845 1.75 19.5 1.75C19.7155 1.75 19.9222 1.84219 20.0745 2.00628C20.2269 2.17038 20.3125 2.39294 20.3125 2.625V5.25C20.3125 5.48206 20.2269 5.70462 20.0745 5.86872C19.9222 6.03281 19.7155 6.125 19.5 6.125C19.2845 6.125 19.0778 6.03281 18.9255 5.86872C18.7731 5.70462 18.6875 5.48206 18.6875 5.25V2.625ZM12.1875 2.625C12.1875 2.39294 12.2731 2.17038 12.4255 2.00628C12.5778 1.84219 12.7845 1.75 13 1.75C13.2155 1.75 13.4222 1.84219 13.5745 2.00628C13.7269 2.17038 13.8125 2.39294 13.8125 2.625V5.25C13.8125 5.48206 13.7269 5.70462 13.5745 5.86872C13.4222 6.03281 13.2155 6.125 13 6.125C12.7845 6.125 12.5778 6.03281 12.4255 5.86872C12.2731 5.70462 12.1875 5.48206 12.1875 5.25V2.625ZM5.6875 2.625C5.6875 2.39294 5.7731 2.17038 5.92548 2.00628C6.07785 1.84219 6.28451 1.75 6.5 1.75C6.71549 1.75 6.92215 1.84219 7.07452 2.00628C7.2269 2.17038 7.3125 2.39294 7.3125 2.625V5.25C7.3125 5.48206 7.2269 5.70462 7.07452 5.86872C6.92215 6.03281 6.71549 6.125 6.5 6.125C6.28451 6.125 6.07785 6.03281 5.92548 5.86872C5.7731 5.70462 5.6875 5.48206 5.6875 5.25V2.625ZM24.375 8.75H1.625V5.6875C1.62596 5.33972 1.75468 5.00649 1.98303 4.76057C2.21138 4.51465 2.52081 4.37604 2.84375 4.375H4.875V5.25C4.875 5.71413 5.0462 6.15925 5.35095 6.48744C5.6557 6.81563 6.06902 7 6.5 7C6.93098 7 7.3443 6.81563 7.64905 6.48744C7.95379 6.15925 8.125 5.71413 8.125 5.25V4.375H11.375V5.25C11.375 5.71413 11.5462 6.15925 11.851 6.48744C12.1557 6.81563 12.569 7 13 7C13.431 7 13.8443 6.81563 14.149 6.48744C14.4538 6.15925 14.625 5.71413 14.625 5.25V4.375H17.875V5.25C17.875 5.71413 18.0462 6.15925 18.351 6.48744C18.6557 6.81563 19.069 7 19.5 7C19.931 7 20.3443 6.81563 20.649 6.48744C20.9538 6.15925 21.125 5.71413 21.125 5.25V4.375H23.1562C23.4792 4.37604 23.7886 4.51465 24.017 4.76057C24.2453 5.00649 24.374 5.33972 24.375 5.6875V8.75Z" fill="#1E81CE"/>
<path d="M12.1875 12.6875C12.1875 12.4554 12.1019 12.2329 11.9495 12.0688C11.7972 11.9047 11.5905 11.8125 11.375 11.8125H9.75C9.53451 11.8125 9.32785 11.9047 9.17548 12.0688C9.0231 12.2329 8.9375 12.4554 8.9375 12.6875V14C8.9375 14.2321 9.0231 14.4546 9.17548 14.6187C9.32785 14.7828 9.53451 14.875 9.75 14.875H11.375C11.5905 14.875 11.7972 14.7828 11.9495 14.6187C12.1019 14.4546 12.1875 14.2321 12.1875 14V12.6875ZM9.75 14V12.6875H11.375V14H9.75Z" fill="#1E81CE"/>
<path d="M7.3125 12.6875C7.3125 12.4554 7.2269 12.2329 7.07452 12.0688C6.92215 11.9047 6.71549 11.8125 6.5 11.8125H4.875C4.65951 11.8125 4.45285 11.9047 4.30048 12.0688C4.1481 12.2329 4.0625 12.4554 4.0625 12.6875V14C4.0625 14.2321 4.1481 14.4546 4.30048 14.6187C4.45285 14.7828 4.65951 14.875 4.875 14.875H6.5C6.71549 14.875 6.92215 14.7828 7.07452 14.6187C7.2269 14.4546 7.3125 14.2321 7.3125 14V12.6875ZM4.875 14V12.6875H6.5V14H4.875Z" fill="#1E81CE"/>
<path d="M21.125 14.875C21.3405 14.875 21.5472 14.7828 21.6995 14.6187C21.8519 14.4546 21.9375 14.2321 21.9375 14V12.6875C21.9375 12.4554 21.8519 12.2329 21.6995 12.0688C21.5472 11.9047 21.3405 11.8125 21.125 11.8125H19.5C19.2845 11.8125 19.0778 11.9047 18.9255 12.0688C18.7731 12.2329 18.6875 12.4554 18.6875 12.6875V14C18.6875 14.2321 18.7731 14.4546 18.9255 14.6187C19.0778 14.7828 19.2845 14.875 19.5 14.875H21.125ZM19.5 12.6875H21.125V14H19.5V12.6875Z" fill="#1E81CE"/>
<path d="M12.1875 16.625C12.1875 16.3929 12.1019 16.1704 11.9495 16.0063C11.7972 15.8422 11.5905 15.75 11.375 15.75H9.75C9.53451 15.75 9.32785 15.8422 9.17548 16.0063C9.0231 16.1704 8.9375 16.3929 8.9375 16.625V17.9375C8.9375 18.1696 9.0231 18.3921 9.17548 18.5562C9.32785 18.7203 9.53451 18.8125 9.75 18.8125H11.375C11.5905 18.8125 11.7972 18.7203 11.9495 18.5562C12.1019 18.3921 12.1875 18.1696 12.1875 17.9375V16.625ZM9.75 17.9375V16.625H11.375V17.9375H9.75Z" fill="#1E81CE"/>
<path d="M7.3125 16.625C7.3125 16.3929 7.2269 16.1704 7.07452 16.0063C6.92215 15.8422 6.71549 15.75 6.5 15.75H4.875C4.65951 15.75 4.45285 15.8422 4.30048 16.0063C4.1481 16.1704 4.0625 16.3929 4.0625 16.625V17.9375C4.0625 18.1696 4.1481 18.3921 4.30048 18.5562C4.45285 18.7203 4.65951 18.8125 4.875 18.8125H6.5C6.71549 18.8125 6.92215 18.7203 7.07452 18.5562C7.2269 18.3921 7.3125 18.1696 7.3125 17.9375V16.625ZM4.875 17.9375V16.625H6.5V17.9375H4.875Z" fill="#1E81CE"/>
<path d="M11.375 19.6875H9.75C9.53451 19.6875 9.32785 19.7797 9.17548 19.9438C9.0231 20.1079 8.9375 20.3304 8.9375 20.5625V21.875C8.9375 22.1071 9.0231 22.3296 9.17548 22.4937C9.32785 22.6578 9.53451 22.75 9.75 22.75H11.375C11.5905 22.75 11.7972 22.6578 11.9495 22.4937C12.1019 22.3296 12.1875 22.1071 12.1875 21.875V20.5625C12.1875 20.3304 12.1019 20.1079 11.9495 19.9438C11.7972 19.7797 11.5905 19.6875 11.375 19.6875ZM9.75 21.875V20.5625H11.375V21.875H9.75Z" fill="#1E81CE"/>
<path d="M14.625 14.875H16.25C16.4655 14.875 16.6722 14.7828 16.8245 14.6187C16.9769 14.4546 17.0625 14.2321 17.0625 14V12.6875C17.0625 12.4554 16.9769 12.2329 16.8245 12.0688C16.6722 11.9047 16.4655 11.8125 16.25 11.8125H14.625C14.4095 11.8125 14.2028 11.9047 14.0505 12.0688C13.8981 12.2329 13.8125 12.4554 13.8125 12.6875V14C13.8125 14.2321 13.8981 14.4546 14.0505 14.6187C14.2028 14.7828 14.4095 14.875 14.625 14.875ZM14.625 12.6875H16.25V14H14.625V12.6875Z" fill="#1E81CE"/>
<path d="M13.8125 17.9375C13.8125 18.1696 13.8981 18.3921 14.0505 18.5562C14.2028 18.7203 14.4095 18.8125 14.625 18.8125C14.7327 18.8125 14.8361 18.7664 14.9123 18.6844C14.9884 18.6023 15.0312 18.491 15.0312 18.375C15.0312 18.259 14.9884 18.1477 14.9123 18.0656C14.8361 17.9836 14.7327 17.9375 14.625 17.9375V16.625H16.25C16.3577 16.625 16.4611 16.5789 16.5373 16.4969C16.6134 16.4148 16.6562 16.3035 16.6562 16.1875C16.6562 16.0715 16.6134 15.9602 16.5373 15.8781C16.4611 15.7961 16.3577 15.75 16.25 15.75H14.625C14.4095 15.75 14.2028 15.8422 14.0505 16.0063C13.8981 16.1704 13.8125 16.3929 13.8125 16.625V17.9375Z" fill="#1E81CE"/>
<path d="M6.5 19.6875H4.875C4.65951 19.6875 4.45285 19.7797 4.30048 19.9438C4.1481 20.1079 4.0625 20.3304 4.0625 20.5625V21.875C4.0625 22.1071 4.1481 22.3296 4.30048 22.4937C4.45285 22.6578 4.65951 22.75 4.875 22.75H6.5C6.71549 22.75 6.92215 22.6578 7.07452 22.4937C7.2269 22.3296 7.3125 22.1071 7.3125 21.875V20.5625C7.3125 20.3304 7.2269 20.1079 7.07452 19.9438C6.92215 19.7797 6.71549 19.6875 6.5 19.6875ZM4.875 21.875V20.5625H6.5V21.875H4.875Z" fill="#1E81CE"/>
<path d="M19.9063 15.75C18.8617 15.75 17.8406 16.0836 16.9721 16.7085C16.1037 17.3335 15.4267 18.2217 15.027 19.261C14.6273 20.3002 14.5227 21.4438 14.7265 22.5471C14.9303 23.6503 15.4332 24.6638 16.1718 25.4592C16.9104 26.2546 17.8515 26.7963 18.8759 27.0157C19.9004 27.2352 20.9623 27.1225 21.9273 26.6921C22.8923 26.2616 23.7171 25.5326 24.2974 24.5973C24.8778 23.662 25.1875 22.5624 25.1875 21.4375C25.1859 19.9296 24.629 18.484 23.6389 17.4177C22.6488 16.3515 21.3064 15.7517 19.9063 15.75ZM19.9063 26.25C19.0224 26.25 18.1584 25.9677 17.4235 25.4389C16.6887 24.9101 16.1159 24.1585 15.7777 23.2792C15.4394 22.3998 15.3509 21.4322 15.5234 20.4986C15.6958 19.5651 16.1214 18.7076 16.7464 18.0345C17.3713 17.3615 18.1676 16.9032 19.0344 16.7175C19.9013 16.5318 20.7998 16.6271 21.6164 16.9913C22.4329 17.3556 23.1308 17.9724 23.6219 18.7638C24.1129 19.5552 24.375 20.4857 24.375 21.4375C24.3736 22.7134 23.9023 23.9366 23.0646 24.8388C22.2268 25.741 21.091 26.2485 19.9063 26.25Z" fill="#1E81CE"/>
<path d="M22.2531 19.6033L19.0933 23.0061L17.6572 21.4592C17.5806 21.3795 17.478 21.3354 17.3715 21.3364C17.265 21.3374 17.1631 21.3834 17.0877 21.4645C17.0124 21.5456 16.9697 21.6553 16.9688 21.77C16.9678 21.8847 17.0088 21.9953 17.0828 22.0778L18.8061 23.9341C18.8823 24.0161 18.9856 24.0622 19.0933 24.0622C19.201 24.0622 19.3044 24.0161 19.3805 23.9341L22.8276 20.2219C22.9016 20.1394 22.9425 20.0289 22.9416 19.9142C22.9407 19.7995 22.8979 19.6897 22.8226 19.6086C22.7473 19.5275 22.6454 19.4815 22.5389 19.4805C22.4324 19.4795 22.3297 19.5236 22.2531 19.6033Z" fill="#1E81CE"/>
</svg>
