<svg width="22" height="29" viewBox="0 0 22 29" fill="none" xmlns="http://www.w3.org/2000/svg">
<rect y="3" width="22" height="26" rx="2" fill="#5AD7FF"/>
<rect x="3" y="7" width="16" height="20" rx="2" fill="#D7E6F0"/>
<circle cx="11.6195" cy="14.8421" r="5.61947" fill="#FAA019"/>
<path d="M12.3014 9.56154C12.3118 9.38086 12.1736 9.22499 11.9926 9.2252C10.7476 9.22664 9.53485 9.64239 8.54828 10.4119C7.56171 11.1814 6.86317 12.2565 6.55864 13.4637C6.51438 13.6391 6.63191 13.8111 6.80967 13.8451C6.98743 13.879 7.15798 13.7621 7.2036 13.5869C7.47741 12.5358 8.09012 11.6004 8.95135 10.9287C9.81258 10.2569 10.869 9.8904 11.9551 9.88077C12.1361 9.87916 12.2911 9.74222 12.3014 9.56154Z" fill="#F4CD3E"/>
<path d="M9.63501 12.6094L13.7992 16.9853" stroke="#F06423" stroke-width="2" stroke-linecap="round"/>
<path d="M13.655 12.5391L9.71214 17.0965" stroke="#F06423" stroke-width="2" stroke-linecap="round"/>
<path fill-rule="evenodd" clip-rule="evenodd" d="M12.9636 1.92038C12.9167 1.92038 12.8795 1.8812 12.8795 1.83433C12.8795 0.82126 12.0322 0 10.987 0C9.94173 0 9.0944 0.82126 9.0944 1.83433C9.0944 1.8812 9.05723 1.92038 9.01037 1.92038H7.24097C6.68868 1.92038 6.24097 2.3681 6.24097 2.92038V4.64729C6.24097 5.19957 6.68868 5.64729 7.24097 5.64729H14.6747C15.227 5.64729 15.6747 5.19957 15.6747 4.64729V2.92038C15.6747 2.3681 15.227 1.92038 14.6747 1.92038H12.9636Z" fill="#9B5FAA"/>
<ellipse cx="10.9871" cy="1.74849" rx="0.902609" ry="0.873493" fill="#E5E5E5"/>
<path d="M5 22.1562H16.7922" stroke="#A5C3DC" stroke-linecap="round"/>
<path d="M5 23.4102H16.7922" stroke="#A5C3DC" stroke-linecap="round"/>
<path d="M9 24.6289L13.6004 24.6289" stroke="#A5C3DC" stroke-linecap="round"/>
</svg>
