<svg width="24" height="24" viewBox="0 0 24 24" fill="none" xmlns="http://www.w3.org/2000/svg">
<path d="M14.625 6.375C12.9191 6.375 11.2516 6.88085 9.83321 7.82858C8.41484 8.7763 7.30935 10.1233 6.65654 11.6994C6.00374 13.2754 5.83293 15.0096 6.16573 16.6827C6.49853 18.3557 7.31998 19.8926 8.52621 21.0988C9.73243 22.305 11.2693 23.1265 12.9423 23.4593C14.6154 23.7921 16.3496 23.6213 17.9256 22.9685C19.5017 22.3157 20.8487 21.2102 21.7964 19.7918C22.7442 18.3734 23.25 16.7059 23.25 15C23.2474 12.7133 22.3379 10.521 20.7209 8.90405C19.104 7.28711 16.9117 6.37758 14.625 6.375ZM11.3906 17.6141C10.7186 17.6224 10.23 17.6258 9.873 17.6258C9.53422 17.6541 9.19327 17.6415 8.8575 17.5883C8.79761 17.5665 8.74333 17.5316 8.69862 17.4862C8.65392 17.4408 8.61993 17.386 8.59913 17.3258C8.532 17.1086 8.62013 16.9924 8.9115 16.6061C9.15225 16.2874 9.60038 15.6938 10.3511 14.6085C10.5541 14.3357 10.7051 14.0278 10.7966 13.7003L10.8101 13.5795C10.8094 13.3718 10.731 13.1718 10.5904 13.0188C10.4499 12.8659 10.2573 12.7709 10.0503 12.7526C9.84338 12.7343 9.63707 12.7939 9.47184 12.9199C9.3066 13.0458 9.19436 13.2289 9.15713 13.4332C9.14934 13.4831 9.1316 13.5308 9.10495 13.5736C9.07831 13.6163 9.04331 13.6533 9.00206 13.6823C8.9608 13.7112 8.91413 13.7316 8.86483 13.7421C8.81553 13.7526 8.76462 13.7531 8.71514 13.7435C8.66566 13.7338 8.61863 13.7144 8.57685 13.6862C8.53507 13.658 8.4994 13.6216 8.47198 13.5793C8.44456 13.537 8.42594 13.4897 8.41725 13.44C8.40855 13.3904 8.40996 13.3395 8.42138 13.2904C8.49456 12.9014 8.7108 12.5539 9.02749 12.3164C9.34417 12.0789 9.73832 11.9687 10.1322 12.0074C10.5262 12.0462 10.8913 12.2311 11.1557 12.5257C11.42 12.8203 11.5645 13.2032 11.5605 13.599C11.5605 13.6399 11.556 13.6511 11.5339 13.8308C11.425 14.2651 11.2328 14.6742 10.968 15.0353C10.3331 15.9529 9.91163 16.5236 9.648 16.875C10.1126 16.875 10.7681 16.8724 11.3809 16.8645C11.4795 16.866 11.5738 16.9052 11.6444 16.9741C11.715 17.0429 11.7566 17.1361 11.7608 17.2346C11.762 17.334 11.7236 17.4298 11.6542 17.501C11.5848 17.5721 11.49 17.6128 11.3906 17.6141ZM15.75 16.1861H15.4609C15.4575 16.7149 15.4541 17.1266 15.453 17.253C15.4522 17.3519 15.4124 17.4466 15.3421 17.5162C15.2719 17.5859 15.1769 17.625 15.078 17.625H15.075C14.9756 17.6241 14.8806 17.5838 14.811 17.5129C14.7413 17.442 14.7026 17.3464 14.7034 17.247C14.706 16.9245 14.709 16.5623 14.7113 16.1861H12.7238C12.6589 16.1862 12.5952 16.1694 12.5388 16.1374C12.4824 16.1055 12.4352 16.0595 12.4019 16.0039C12.3686 15.9483 12.3503 15.885 12.3487 15.8202C12.3471 15.7554 12.3624 15.6913 12.393 15.6341C12.6581 15.1388 13.9939 12.6499 14.2605 12.3124C14.3355 12.189 14.4495 12.0942 14.5845 12.0429C14.7195 11.9916 14.8677 11.9869 15.0057 12.0294C15.1437 12.0718 15.2636 12.1591 15.3464 12.2775C15.4292 12.3958 15.4701 12.5383 15.4628 12.6825C15.4766 12.858 15.4721 14.2331 15.4628 15.4361H15.75C15.8495 15.4361 15.9448 15.4756 16.0152 15.546C16.0855 15.6163 16.125 15.7117 16.125 15.8111C16.125 15.9106 16.0855 16.006 16.0152 16.0763C15.9448 16.1466 15.8495 16.1861 15.75 16.1861ZM20.625 17.625C20.5255 17.625 20.4302 17.5855 20.3598 17.5152C20.2895 17.4448 20.25 17.3495 20.25 17.25L20.2429 15.5767C20.2489 14.5369 19.9238 14.3768 19.3999 14.3768C18.7965 14.3768 18.375 14.8695 18.375 15.5767V17.25C18.375 17.3495 18.3355 17.4448 18.2652 17.5152C18.1948 17.5855 18.0995 17.625 18 17.625C17.9005 17.625 17.8052 17.5855 17.7348 17.5152C17.6645 17.4448 17.625 17.3495 17.625 17.25V12.375C17.625 12.2755 17.6645 12.1802 17.7348 12.1098C17.8052 12.0395 17.9005 12 18 12C18.0995 12 18.1948 12.0395 18.2652 12.1098C18.3355 12.1802 18.375 12.2755 18.375 12.375V13.9567C18.6722 13.7395 19.0317 13.6242 19.3999 13.6279C20.5759 13.6279 21.0004 14.403 20.9929 15.5779L21 17.25C21 17.3495 20.9605 17.4448 20.8902 17.5152C20.8198 17.5855 20.7245 17.625 20.625 17.625Z" fill="#C4A2FC"/>
<path d="M13.3523 15.4369H14.7158C14.7222 14.4147 14.7255 13.4228 14.7214 12.9766C14.4435 13.4359 13.842 14.5302 13.3523 15.4369Z" fill="#C4A2FC"/>
<path d="M13.0755 13.3125C13.1248 13.2262 13.1378 13.1238 13.1116 13.0279C13.0855 12.9319 13.0223 12.8503 12.936 12.801L10.5 11.4075V6.375C10.5 6.27554 10.4605 6.18016 10.3902 6.10983C10.3198 6.03951 10.2245 6 10.125 6C10.0255 6 9.93016 6.03951 9.85983 6.10983C9.78951 6.18016 9.75 6.27554 9.75 6.375V11.625C9.75513 11.6898 9.77462 11.7526 9.80705 11.8089C9.83948 11.8652 9.88404 11.9136 9.9375 11.9505L12.5625 13.4505C12.6052 13.4752 12.6524 13.4912 12.7013 13.4977C12.7503 13.5041 12.8 13.5008 12.8477 13.488C12.8953 13.4752 12.94 13.4531 12.9791 13.423C13.0182 13.3928 13.0509 13.3553 13.0755 13.3125Z" fill="#151A6A"/>
<path d="M18.0063 4.67081C17.9799 4.62893 17.9453 4.59271 17.9048 4.56424C17.8642 4.53578 17.8184 4.51564 17.77 4.50498C17.7216 4.49432 17.6716 4.49336 17.6229 4.50215C17.5741 4.51094 17.5275 4.5293 17.4859 4.55618C17.4443 4.58307 17.4084 4.61793 17.3803 4.65877C17.3523 4.6996 17.3326 4.74559 17.3224 4.79409C17.3122 4.84258 17.3117 4.89261 17.321 4.94129C17.3302 4.98996 17.3491 5.03632 17.3763 5.07769C18.5684 6.92215 19.0138 9.15114 18.6222 11.3121C18.2306 13.473 17.0313 15.404 15.2679 16.7128C13.5044 18.0217 11.3089 18.6104 9.12712 18.3594C6.94537 18.1085 4.94089 17.0366 3.52068 15.3615C2.10046 13.6864 1.37095 11.5335 1.48026 9.34013C1.58958 7.14671 2.52952 5.07709 4.10925 3.55148C5.68899 2.02587 7.7901 1.15862 9.986 1.12581C12.1819 1.093 14.308 1.89708 15.9326 3.37481H15.375C15.2755 3.37481 15.1801 3.41432 15.1098 3.48465C15.0395 3.55497 15 3.65036 15 3.74981C15 3.84927 15.0395 3.94465 15.1098 4.01498C15.1801 4.0853 15.2755 4.12481 15.375 4.12481H16.875C16.9744 4.12481 17.0698 4.0853 17.1401 4.01498C17.2105 3.94465 17.25 3.84927 17.25 3.74981V2.24981C17.25 2.15036 17.2105 2.05497 17.1401 1.98465C17.0698 1.91432 16.9744 1.87481 16.875 1.87481C16.7755 1.87481 16.6801 1.91432 16.6098 1.98465C16.5395 2.05497 16.5 2.15036 16.5 2.24981V2.87981C14.7563 1.26906 12.4644 0.383251 10.0907 0.402656C7.71699 0.422061 5.43988 1.34522 3.72279 2.98427C2.0057 4.62331 0.977674 6.85505 0.847943 9.22528C0.718213 11.5955 1.49652 13.9261 3.02447 15.7428C4.55242 17.5594 6.71518 18.7256 9.07259 19.004C11.43 19.2823 13.8049 18.6519 15.7139 17.2411C17.623 15.8303 18.9227 13.745 19.3486 11.4098C19.7744 9.0745 19.2945 6.6647 18.0063 4.67081Z" fill="#151A6A"/>
<path d="M10.125 3.375C10.2245 3.375 10.3198 3.33549 10.3902 3.26516C10.4605 3.19484 10.5 3.09946 10.5 3V2.25C10.5 2.15054 10.4605 2.05516 10.3902 1.98484C10.3198 1.91451 10.2245 1.875 10.125 1.875C10.0255 1.875 9.93016 1.91451 9.85983 1.98484C9.78951 2.05516 9.75 2.15054 9.75 2.25V3C9.75 3.09946 9.78951 3.19484 9.85983 3.26516C9.93016 3.33549 10.0255 3.375 10.125 3.375Z" fill="#151A6A"/>
<path d="M9.75 16.5V17.25C9.75 17.3495 9.78951 17.4448 9.85983 17.5152C9.93016 17.5855 10.0255 17.625 10.125 17.625C10.2245 17.625 10.3198 17.5855 10.3902 17.5152C10.4605 17.4448 10.5 17.3495 10.5 17.25V16.5C10.5 16.4005 10.4605 16.3052 10.3902 16.2348C10.3198 16.1645 10.2245 16.125 10.125 16.125C10.0255 16.125 9.93016 16.1645 9.85983 16.2348C9.78951 16.3052 9.75 16.4005 9.75 16.5Z" fill="#151A6A"/>
<path d="M16.5 9.75C16.5 9.84946 16.5395 9.94484 16.6098 10.0152C16.6802 10.0855 16.7755 10.125 16.875 10.125H17.625C17.7245 10.125 17.8198 10.0855 17.8902 10.0152C17.9605 9.94484 18 9.84946 18 9.75C18 9.65054 17.9605 9.55516 17.8902 9.48483C17.8198 9.41451 17.7245 9.375 17.625 9.375H16.875C16.7755 9.375 16.6802 9.41451 16.6098 9.48483C16.5395 9.55516 16.5 9.65054 16.5 9.75Z" fill="#151A6A"/>
<path d="M2.625 9.375C2.52554 9.375 2.43016 9.41451 2.35984 9.48483C2.28951 9.55516 2.25 9.65054 2.25 9.75C2.25 9.84946 2.28951 9.94484 2.35984 10.0152C2.43016 10.0855 2.52554 10.125 2.625 10.125H3.375C3.47446 10.125 3.56984 10.0855 3.64016 10.0152C3.71049 9.94484 3.75 9.84946 3.75 9.75C3.75 9.65054 3.71049 9.55516 3.64016 9.48483C3.56984 9.41451 3.47446 9.375 3.375 9.375H2.625Z" fill="#151A6A"/>
</svg>
