<svg width="41" height="41" viewBox="0 0 41 41" fill="none" xmlns="http://www.w3.org/2000/svg">
<path d="M40.5638 12.1835C40.4656 10.0349 40.1242 8.56764 39.6254 7.28384C39.1185 5.9368 38.3241 4.7167 37.2973 3.70833C36.2894 2.68156 35.0689 1.88626 33.7218 1.37938C32.438 0.88102 30.9708 0.54011 28.8221 0.442322C26.6695 0.344086 25.9818 0.320312 20.4999 0.320312C15.018 0.320312 14.3303 0.344086 12.1777 0.441874C10.029 0.54011 8.56178 0.881468 7.27799 1.38027C5.93094 1.88715 4.71084 2.68156 3.70247 3.70833C2.6757 4.71626 1.8804 5.93635 1.37352 7.2834C0.87516 8.56764 0.53425 10.0349 0.436463 12.1831C0.337779 14.3362 0.314453 15.0238 0.314453 20.5058C0.314453 25.9881 0.337779 26.6758 0.436463 28.8285C0.53425 30.9766 0.875609 32.4443 1.37486 33.7281C1.88174 35.0747 2.67615 36.2953 3.70292 37.3032C4.71084 38.33 5.93139 39.1248 7.27843 39.6313C8.56223 40.1305 10.0295 40.4714 12.1781 40.5697C14.3308 40.6679 15.0184 40.6912 20.5004 40.6912C25.9823 40.6912 26.6699 40.6683 28.8226 40.5697C30.9712 40.4714 32.4385 40.1305 33.7223 39.6313C36.4339 38.583 38.5771 36.4393 39.6254 33.7281C40.1246 32.4439 40.4656 30.9766 40.5638 28.8285C40.662 26.6753 40.6854 25.9877 40.6854 20.5058C40.6854 15.0238 40.662 14.3362 40.5638 12.1835ZM36.9304 28.6629C36.8407 30.6312 36.5119 31.6997 36.2356 32.4111C35.5565 34.1718 34.165 35.5628 32.4048 36.2419C31.6939 36.5182 30.6249 36.847 28.6566 36.9367C26.5286 37.0341 25.8899 37.0542 20.4999 37.0542C15.1095 37.0542 14.4712 37.0341 12.3432 36.9367C10.3753 36.847 9.3064 36.5182 8.59497 36.2419C7.71848 35.918 6.92541 35.4022 6.2741 34.7316C5.60349 34.0803 5.08764 33.2876 4.76378 32.4107C4.48746 31.6997 4.15866 30.6308 4.06895 28.6625C3.97206 26.534 3.95142 25.8957 3.95142 20.5058C3.95142 15.1158 3.97206 14.4775 4.06895 12.349C4.15911 10.3807 4.48746 9.31226 4.76378 8.60083C5.08764 7.72389 5.60349 6.93082 6.2741 6.27951C6.92541 5.6089 7.71848 5.09305 8.59542 4.76963C9.3064 4.49287 10.3753 4.16452 12.3436 4.07436C14.4716 3.97792 15.1099 3.95728 20.4999 3.95728H20.4995C25.8894 3.95728 26.5277 3.97792 28.6562 4.07526C30.6245 4.16497 31.693 4.49377 32.4044 4.77008C33.2809 5.09395 34.0739 5.6098 34.7253 6.27996C35.3959 6.93127 35.9117 7.72434 36.2351 8.60128C36.5119 9.31226 36.8407 10.3812 36.9304 12.3495C37.0273 14.4779 37.0479 15.1162 37.0479 20.5062C37.0479 25.8962 37.0278 26.534 36.9304 28.6629Z" fill="url(#paint0_linear_1417_985)"/>
<path d="M20.4992 10.1523C14.7746 10.1523 10.1338 14.7932 10.1338 20.5178C10.1338 26.2424 14.7746 30.8832 20.4992 30.8832C26.2243 30.8832 30.8647 26.2424 30.8647 20.5178C30.8647 14.7932 26.2243 10.1523 20.4992 10.1523ZM20.4992 27.2463C16.7838 27.2458 13.7712 24.2337 13.7712 20.5178C13.7712 16.8019 16.7833 13.7893 20.4997 13.7893C24.2156 13.7898 27.2282 16.8019 27.2282 20.5178C27.2282 24.2337 24.2156 27.2463 20.4992 27.2463Z" fill="url(#paint1_linear_1417_985)"/>
<path d="M33.697 9.72694C33.697 11.0646 32.6124 12.1492 31.2748 12.1492C29.9367 12.1492 28.8525 11.0646 28.8525 9.72694C28.8525 8.38887 29.9372 7.30469 31.2748 7.30469C32.6124 7.30469 33.697 8.38932 33.697 9.72694Z" fill="url(#paint2_linear_1417_985)"/>
<defs>
<linearGradient id="paint0_linear_1417_985" x1="3.70238" y1="37.3032" x2="37.2975" y2="3.7081" gradientUnits="userSpaceOnUse">
<stop stop-color="#FFD600"/>
<stop offset="0.5" stop-color="#FF0100"/>
<stop offset="1" stop-color="#D800B9"/>
</linearGradient>
<linearGradient id="paint1_linear_1417_985" x1="13.17" y1="27.8474" x2="27.829" y2="13.1884" gradientUnits="userSpaceOnUse">
<stop stop-color="#FF6400"/>
<stop offset="0.5" stop-color="#FF0100"/>
<stop offset="1" stop-color="#FD0056"/>
</linearGradient>
<linearGradient id="paint2_linear_1417_985" x1="29.5618" y1="11.4398" x2="32.9875" y2="8.01414" gradientUnits="userSpaceOnUse">
<stop stop-color="#F30072"/>
<stop offset="1" stop-color="#E50097"/>
</linearGradient>
</defs>
</svg>
