<svg width="24" height="30" viewBox="0 0 24 30" fill="none" xmlns="http://www.w3.org/2000/svg">
<path d="M12.0753 29.8288L3.22319 19.4029C1.44458 17.3066 0.464844 14.6417 0.464844 11.8995C0.464844 5.49724 5.67335 0.289062 12.0753 0.289062C18.4772 0.289062 23.686 5.49757 23.686 11.8995C23.686 14.6417 22.7063 17.3066 20.9273 19.4029L12.0753 29.8288ZM12.0753 1.25435C6.20539 1.25435 1.43014 6.02961 1.43014 11.8995C1.43014 14.4133 2.32847 16.8562 3.95906 18.7783L12.0753 28.3377L20.1915 18.7783C21.8224 16.8566 22.7207 14.4133 22.7207 11.8995C22.7204 6.02961 17.9451 1.25435 12.0753 1.25435ZM12.0753 16.5756C9.28572 16.5756 7.01642 14.306 7.01642 11.5164C7.01642 8.72691 9.28605 6.45728 12.0753 6.45728C14.8648 6.45728 17.1341 8.72691 17.1341 11.5164C17.1341 14.306 14.8648 16.5756 12.0753 16.5756ZM12.0753 7.42257C9.81777 7.42257 7.98138 9.25928 7.98138 11.5164C7.98138 13.7736 9.81777 15.6103 12.0753 15.6103C14.3327 15.6103 16.1691 13.7736 16.1691 11.5164C16.1691 9.25928 14.3324 7.42257 12.0753 7.42257Z" fill="#164F96"/>
</svg>
