<svg width="27" height="27" viewBox="0 0 27 27" fill="none" xmlns="http://www.w3.org/2000/svg">
<g clip-path="url(#clip0_1867_7216)">
<path d="M15.75 14.6253C13.8893 14.6253 12.375 13.111 12.375 11.2503C12.375 9.38958 13.8893 7.87534 15.75 7.87534H17.9998V3.37545C17.9998 1.51473 16.4856 0.000488281 14.6249 0.000488281H2.53132C2.16116 0.000488281 1.81468 0.182585 1.60436 0.487452C1.39507 0.79232 1.3479 1.18061 1.48056 1.52586L9.63679 22.9008C9.8022 23.3373 10.2206 23.6252 10.6876 23.6252H14.6249C16.4856 23.6252 17.9998 22.111 17.9998 20.2503V14.6253H15.75Z" fill="#2196F3"/>
<path d="M20.9442 16.7897C20.5246 16.6152 20.25 16.2047 20.25 15.75V12.3751H15.7501C15.1291 12.3751 14.625 11.8712 14.625 11.2501C14.625 10.6291 15.1291 10.1252 15.7501 10.1252H20.25V6.75026C20.25 6.29564 20.5246 5.8851 20.9442 5.71062C21.3648 5.53635 21.8487 5.63317 22.1703 5.95493L26.6704 10.4548C27.1101 10.8946 27.1101 11.6057 26.6704 12.0455L22.1703 16.5456C21.8487 16.8671 21.3648 16.9639 20.9442 16.7897Z" fill="#607D8B"/>
<path d="M9.72671 2.36598L2.96669 0.112641C1.44112 -0.356402 0 0.769754 0 2.25124V22.501C0 23.463 0.612001 24.3214 1.52331 24.6363L8.28209 26.8897C8.53073 26.9661 8.75917 27.0011 8.99997 27.0011C10.2409 27.0011 11.2498 25.992 11.2498 24.7511V4.50129C11.2498 3.53952 10.6378 2.68115 9.72671 2.36598Z" fill="#64B5F6"/>
</g>
<defs>
<clipPath id="clip0_1867_7216">
<rect width="27" height="27" fill="white"/>
</clipPath>
</defs>
</svg>
