<svg width="48" height="48" viewBox="0 0 48 48" fill="none" xmlns="http://www.w3.org/2000/svg">
<path fill-rule="evenodd" clip-rule="evenodd" d="M1 24C1 11.2975 11.2947 1 24 1C36.7025 1 47 11.2947 47 24C47 36.7025 36.7053 47 24 47C11.2975 47 1 36.7053 1 24ZM12.881 14.8893C11.5795 14.8893 10.5244 15.9418 10.5244 17.2432V31.1206C10.5244 32.4206 11.5803 33.4744 12.881 33.4744H35.5305C36.832 33.4744 37.8871 32.422 37.8871 31.1206V17.2432C37.8871 15.9432 36.8312 14.8893 35.5305 14.8893H12.881Z" stroke="#164F96"/>
<path d="M36.9989 18.2148L24.3311 26.4782" stroke="#164F96" stroke-linecap="square"/>
<path d="M11.0059 18.0234L23.9066 26.4784" stroke="#164F96" stroke-linecap="square"/>
</svg>
