<svg width="25" height="25" viewBox="0 0 25 25" fill="none" xmlns="http://www.w3.org/2000/svg">
<path d="M17.7884 25C9.26854 25 1.5954 14.8214 0.424897 9.49874C-0.547943 5.07577 0.157119 1.93802 2.46444 0.424953V0.425227C2.93586 0.123358 3.4914 -0.0242685 4.0524 0.00325378C4.61341 0.0307761 5.15143 0.232052 5.59029 0.578578C7.85842 2.32578 11.4152 5.6387 9.7511 8.19714C9.22368 9.09135 8.44975 9.81877 7.51969 10.2944C7.4468 10.3332 7.36095 10.3787 7.30657 10.4129C7.42527 10.8033 7.5841 11.1808 7.78057 11.5393C8.89034 13.791 13.0903 18.062 14.9698 18.1029C15.0783 18.1143 15.1878 18.0924 15.2833 18.04C15.3787 17.9877 15.4555 17.9075 15.5031 17.8104C16.2435 16.4619 17.017 15.2263 18.3333 14.9261C19.4094 14.6806 20.6831 15.1106 22.3373 16.279C24.421 17.7498 25.4237 19.965 24.8318 21.7899C24.4431 22.9889 23.0109 25 17.7884 25ZM3.89997 1.12132C3.61231 1.11927 3.33042 1.20098 3.08945 1.35627V1.35653C0.707036 2.91899 0.926226 6.51762 1.5297 9.26133C2.51193 13.7271 9.67327 23.8823 17.7884 23.8823C21.079 23.8823 23.2533 22.9955 23.7546 21.4489C24.1891 20.1096 23.3361 18.3572 21.6803 17.1883C20.3276 16.2332 19.3188 15.8501 18.5873 16.0155C17.811 16.1923 17.2329 17.0033 16.4969 18.3436C16.3485 18.6198 16.124 18.8488 15.8493 19.004C15.5746 19.1592 15.261 19.2343 14.9449 19.2206C12.4278 19.1655 7.91473 14.3635 6.76411 12.0288C6.02675 10.5329 5.85476 9.91105 6.98358 9.31046C7.74369 8.9227 8.37435 8.32623 8.79978 7.59274C10.0564 5.66108 6.12889 2.41061 4.89517 1.46023C4.61064 1.24129 4.26055 1.12207 3.89997 1.12132Z" fill="#3B5892"/>
</svg>
