<svg width="42" height="39" viewBox="0 0 42 39" fill="none" xmlns="http://www.w3.org/2000/svg">
<path d="M41.5 5.00986C39.9919 5.77176 38.3697 6.28708 36.6684 6.51723C38.4055 5.33149 39.7385 3.45532 40.3677 1.21606C38.7423 2.3146 36.9413 3.11153 35.0261 3.54108C33.4917 1.67921 31.3055 0.515625 28.8847 0.515625C24.2401 0.515625 20.4731 4.80759 20.4731 10.0995C20.4731 10.8506 20.5477 11.5818 20.692 12.2837C13.7012 11.8841 7.50271 8.06891 3.35365 2.26886C2.62973 3.68403 2.21445 5.33149 2.21445 7.08758C2.21445 10.4118 3.70056 13.3465 5.95638 15.0647C4.57817 15.0154 3.28026 14.5844 2.1467 13.8647C2.14607 13.9054 2.14607 13.9461 2.14607 13.9862C2.14607 18.6298 5.04677 22.5029 8.89409 23.3827C8.18899 23.6029 7.44437 23.7194 6.67842 23.7194C6.13516 23.7194 5.60885 23.6601 5.0957 23.5486C6.1659 27.3552 9.27173 30.1262 12.9534 30.2041C10.0741 32.775 6.44756 34.3067 2.50552 34.3067C1.82802 34.3067 1.1568 34.2617 0.5 34.1723C4.2206 36.8926 8.64316 38.4786 13.3932 38.4786C28.8653 38.4786 37.3265 23.8752 37.3265 11.2094C37.3265 10.7942 37.3183 10.3804 37.302 9.97009C38.9468 8.61925 40.3727 6.93177 41.5 5.00986Z" fill="#55ACEE"/>
</svg>
