<svg width="27" height="17" viewBox="0 0 27 17" fill="none" xmlns="http://www.w3.org/2000/svg">
<path d="M13.5 0.453125C8.34136 0.453125 3.66324 3.27546 0.211261 7.85969C-0.0704204 8.23527 -0.0704204 8.75997 0.211261 9.13554C3.66324 13.7253 8.34136 16.5476 13.5 16.5476C18.6586 16.5476 23.3368 13.7253 26.7887 9.14106C27.0704 8.76549 27.0704 8.24079 26.7887 7.86521C23.3368 3.27546 18.6586 0.453125 13.5 0.453125ZM13.8701 14.1671C10.4457 14.3825 7.61783 11.5602 7.83323 8.13033C8.00997 5.30246 10.3021 3.01035 13.1299 2.83361C16.5543 2.61821 19.3822 5.44054 19.1668 8.87043C18.9845 11.6928 16.6924 13.9849 13.8701 14.1671ZM13.6988 11.5492C11.8541 11.6652 10.3297 10.1463 10.4512 8.30154C10.5451 6.77715 11.7823 5.54548 13.3067 5.44607C15.1514 5.33008 16.6758 6.84895 16.5543 8.69369C16.4549 10.2236 15.2177 11.4553 13.6988 11.5492Z" fill="#8A8A8A"/>
</svg>
